<svg xmlns="http://www.w3.org/2000/svg" viewBox="0 0 64 64" width="64" height="64">
  <defs>
    <linearGradient id="grad" x1="0" y1="0" x2="1" y2="1">
      <stop offset="0%" stop-color="#4f46e5"/>
      <stop offset="100%" stop-color="#ec4899"/>
    </linearGradient>
  </defs>
  <rect width="64" height="64" rx="16" fill="url(#grad)"/>
  <g>
    <path d="M24 32c0-2 1.5-3.5 3.5-3.5S31 30 31 32s-1.5 3.5-3.5 3.5S24 34 24 32z" fill="#fff" opacity="0.7"/>
    <path d="M36 24c0-1.1.9-2 2-2s2 .9 2 2-.9 2-2 2-2-.9-2-2zm-8 12c0-.6.4-1 1-1s1 .4 1 1-.4 1-1 1-1-.4-1-1zm12-4c0-.6.4-1 1-1s1 .4 1 1-.4 1-1 1-1-.4-1-1z" fill="#fff" opacity="0.9"/>
    <path d="M32 20c.6 0 1 .4 1 1s-.4 1-1 1-1-.4-1-1 .4-1 1-1z" fill="#fff" opacity="0.5"/>
  </g>
</svg>
